<svg width="185" height="276" viewBox="0 0 185 276" fill="none" xmlns="http://www.w3.org/2000/svg">
<rect width="185" height="276" rx="20" fill="white"/>
<g clip-path="url(#clip0_1_779)">
<rect x="8.80957" y="8.78981" width="167.381" height="258.42" rx="14" fill="url(#paint0_linear_1_779)"/>
<path opacity="0.1" fill-rule="evenodd" clip-rule="evenodd" d="M50.6616 5.59941L46.0146 10.0019H41.3538V14.3904L36.7065 18.7927L32.0594 14.3904V10.0019H27.4121L22.7651 5.59941H50.6616ZM18.1177 36.3749H13.4569V40.7772L8.80957 45.1657V18.7929L13.4569 23.1953V27.5839H18.1177L22.7651 31.9862L18.1177 36.3749ZM32.0595 67.1502V62.7479H27.4121L22.7651 58.3592L27.4121 53.9569H32.0595V49.5684L36.7065 45.1659L41.3538 49.5684V53.9569H46.0146L50.6616 58.3592L46.0146 62.7479H41.3538V67.1502L36.7065 71.5526L32.0595 67.1502ZM18.1177 89.1347H13.4569V93.5233L8.80968 97.9256L12.893 101.793H18.6813V107.251L22.7651 111.119L18.6813 114.972V120.431H12.893L8.80957 124.298V97.9257V97.9255V71.5529L13.4569 75.9414V80.3437H18.1177L22.7651 84.7324L18.1177 89.1347ZM32.0595 115.507V119.91L36.7065 124.298L41.3538 119.91V115.507H46.0146L50.6616 111.119L46.0146 106.716H41.3538V102.314L36.7066 97.9256L40.7899 94.0582H46.5645V88.5998L50.6616 84.7324L46.5645 80.8786V75.4065H40.7899L36.7065 71.5529L32.6231 75.4065H26.8485V80.8786L22.7651 84.7324L26.8485 88.5998V94.0582H32.6231L36.7064 97.9256L32.0595 102.314V106.716H27.4121L22.7651 111.119L27.4121 115.507H32.0595ZM26.8485 133.624V128.166H32.6231L36.7065 124.299L40.7899 128.166H46.5645V133.624L50.6616 137.492L46.5645 141.359V146.818H40.7899L36.7069 150.685L41.3538 155.073V159.475H46.0146L50.6616 163.864L46.0146 168.266H41.3538V172.655L36.7065 177.057L32.0595 172.655V168.266H27.4121L22.7651 163.864L27.4121 159.475H32.0595V155.073L36.7061 150.685L32.6231 146.818H26.8485V141.359L22.7651 137.492L26.8485 133.624ZM59.9561 141.894V146.283L64.6031 150.685L60.52 154.538H54.7455V160.01L50.6617 163.864L54.7455 167.731V173.19H60.52L64.6035 177.057L68.6869 173.19H74.4614V167.731L78.5585 163.864L83.2059 168.266H87.8529V172.655L92.5002 177.057L97.1473 172.655V168.266H101.795L106.455 163.864L101.808 159.475H97.1473V155.073L92.5007 150.685L96.5837 146.818H102.358V141.359L106.455 137.492L102.358 133.624V128.166H96.5837L92.5002 124.299L88.4168 128.166H82.6419V133.624L78.5586 137.492L73.9116 133.09H69.2505V128.701L64.6035 124.299L59.9561 128.701V133.09H55.3091L50.6617 137.492L55.3091 141.894H59.9561ZM78.5586 137.492L82.6419 141.359V146.818H88.4168L92.4998 150.685L87.8529 155.073V159.475H83.2059L78.5585 163.864L74.4614 160.01V154.538H68.6869L64.6039 150.685L69.2505 146.283V141.894H73.8978L78.5586 137.492ZM82.6419 180.925V186.384L78.5585 190.251L73.9116 185.849H69.2505V181.446L64.6035 177.058L59.9561 181.446V185.849H55.3091L50.6617 190.251L55.3091 194.64H59.9561V199.042L64.6035 203.431L69.2505 199.042V194.64H73.8978L78.5585 190.251L82.6419 194.105V199.563H88.4168L92.5002 203.431L96.5837 199.563H102.358V194.105L106.455 190.251L102.358 186.384V180.925H96.5837L92.5002 177.058L88.4168 180.925H82.6419ZM26.8485 186.384V180.925H32.6231L36.7065 177.058L40.7899 180.925H46.5645V186.384L50.6616 190.251L46.5645 194.105V199.563H40.7899L36.7065 203.431L32.6231 199.563H26.8485V194.105L22.7651 190.251L26.8485 186.384ZM13.4569 141.894H18.1177L22.7651 137.492L18.1177 133.09H13.4569V128.701L8.80957 124.299V150.684V150.685V177.057L12.893 173.19H18.6813V167.731L22.7651 163.864L18.6813 160.01V154.538H12.893L8.80998 150.685L13.4569 146.283V141.894ZM115.75 194.64V199.042L120.397 203.431L125.044 199.042V194.64H129.692L134.352 190.251L138.436 194.105V199.563H144.21L148.294 203.431L152.377 199.563H158.152V194.105L162.235 190.251L158.152 186.384V180.925H152.377L148.294 177.058L144.21 180.925H138.436V186.384L134.352 190.251L129.692 185.849H125.044V181.446L120.397 177.058L115.75 181.446V185.849H111.103L106.456 190.251L111.103 194.64H115.75ZM18.1177 194.64H13.4569V199.042L8.80957 203.431V177.058L13.4569 181.446V185.849H18.1177L22.7651 190.251L18.1177 194.64ZM97.1473 115.507H101.795L106.455 111.119L101.808 106.716H97.1473V102.314L92.5004 97.9256L96.5837 94.0582H102.358V88.5998L106.455 84.7324L102.358 80.8786V75.4065H96.5837L92.5002 71.5529L88.4168 75.4065H82.6419V80.8786L78.5585 84.7324L73.9116 80.3437H69.2505V75.9414L64.6035 71.5529L59.9561 75.9414V80.3437H55.3091L50.6617 84.7324L55.3091 89.1347H59.9561V93.5233L64.6034 97.9256L60.52 101.793H54.7455V107.251L50.6617 111.105L54.7455 114.972V120.431H60.52L64.6035 124.298L68.6869 120.431H74.4614V114.972L78.5586 111.119L83.2059 115.507H87.8529V119.91L92.5002 124.298L97.1473 119.91V115.507ZM78.5586 111.119L74.4614 107.251V101.793H68.6869L64.6036 97.9256L69.2505 93.5233V89.1347H73.8978L78.5585 84.7324L82.6419 88.5998V94.0582H88.4168L92.5001 97.9256L87.8529 102.314V106.716H83.2059L78.5586 111.119ZM129.692 141.894H125.044V146.283L120.398 150.685L124.481 154.538H130.255V160.01L134.352 163.864L130.255 167.731V173.19H124.481L120.397 177.057L116.313 173.19H110.539V167.731L106.456 163.864L110.539 160.01V154.538H116.313L120.397 150.685L115.75 146.283V141.894H111.103L106.456 137.492L111.103 133.09H115.75V128.701L120.397 124.299L125.044 128.701V133.09H129.692L134.352 137.492L129.692 141.894ZM134.352 137.492L138.436 133.624V128.166H144.21L148.294 124.299L152.377 128.166H158.152V133.624L162.235 137.492L158.152 141.359V146.818H152.377L148.294 150.685L152.941 155.073V159.475H157.588L162.235 163.864L157.588 168.266H152.941V172.655L148.294 177.057L143.647 172.655V168.266H138.999L134.352 163.864L138.999 159.475H143.647V155.073L148.293 150.685L144.21 146.818H138.436V141.359L134.352 137.492ZM125.044 89.1347H129.692L134.352 84.7324L138.436 88.5998V94.0582H144.21L148.294 97.9255L143.647 102.314V106.716H138.999L134.352 111.119L130.255 107.251V101.793H124.481L120.397 97.9256L125.044 93.5233V89.1347ZM134.352 111.119L138.999 115.507H143.647V119.91L148.294 124.298L152.941 119.91V115.507H157.588L162.235 111.119L157.588 106.716H152.941V102.314L148.294 97.9255L152.377 94.0582H158.152V88.5998L162.235 84.7324L158.152 80.8786V75.4065H152.377L148.294 71.5529L144.21 75.4065H138.436V80.8786L134.352 84.7324L129.692 80.3437H125.044V75.9414L120.397 71.5529L115.75 75.9414V80.3437H111.103L106.456 84.7324L111.103 89.1347H115.75V93.5233L120.397 97.9256L116.313 101.793H110.539V107.251L106.456 111.105L110.539 114.972V120.431H116.313L120.397 124.298L124.481 120.431H130.255V114.972L134.352 111.119ZM130.255 207.517H124.481L120.397 203.65L116.313 207.517H110.539V212.976L106.456 216.843L110.539 220.71V226.169H116.313L120.397 230.036L124.481 226.169H130.255V220.71L134.352 216.843L138.999 221.245H143.647V225.634L148.294 230.036L152.941 225.634V221.245H157.588L162.235 216.843L157.588 212.454H152.941V208.052L148.294 203.65L143.647 208.052V212.454H138.999L134.352 216.843L130.255 212.976V207.517ZM101.795 221.245H97.1473V225.634L92.5002 230.036L87.8529 225.634V221.245H83.2059L78.5585 216.843L83.2059 212.454H87.8529V208.052L92.5002 203.65L97.1473 208.052V212.454H101.808L106.455 216.843L101.795 221.245ZM78.5585 216.843L74.4614 220.71V226.169H68.6869L64.6035 230.036L60.52 226.169H54.7455V220.71L50.6617 216.843L54.7455 212.976V207.517H60.52L64.6035 203.65L68.6869 207.517H74.4614V212.976L78.5585 216.843ZM12.893 207.517H18.6813V212.976L22.7651 216.843L18.6813 220.71V226.169H12.893L8.80957 230.036V203.65L12.893 207.517ZM41.3538 221.245H46.0146L50.6616 216.843L46.0146 212.454H41.3538V208.052L36.7065 203.65L32.0595 208.052V212.454H27.4121L22.7651 216.843L27.4121 221.245H32.0595V225.634L36.7065 230.036L41.3538 225.634V221.245ZM18.6813 67.6851V62.2268L22.7651 58.3592L18.6813 54.4918V49.0335H12.893L8.80957 45.1659V71.5526L12.893 67.6851H18.6813ZM97.1473 62.7479H101.795L106.455 58.3592L101.808 53.9569H97.1473V49.5684L92.5002 45.1659L87.8529 49.5684V53.9569H83.2059L78.5586 58.3592L74.4614 54.4918V49.0335H68.6869L64.6035 45.1659L60.52 49.0335H54.7455V54.4918L50.6617 58.3592L54.7455 62.2268V67.6851H60.52L64.6035 71.5526L68.6869 67.6851H74.4614V62.2268L78.5586 58.3592L83.2059 62.7479H87.8529V67.1502L92.5002 71.5526L97.1473 67.1502V62.7479ZM69.2505 36.3749H73.8978L78.5586 31.9862L73.9116 27.5839H69.2505V23.1953L64.6035 18.7929L59.9561 23.1953V27.5839H55.3091L50.6617 31.9862L55.3091 36.3749H59.9561V40.7772L64.6035 45.1657L69.2505 40.7772V36.3749ZM40.7899 22.6604H46.5645V28.1188L50.6616 31.9862L46.5645 35.84V41.312H40.7899L36.7065 45.1657L32.6231 41.312H26.8485V35.84L22.7651 31.9724L26.8485 28.1188V22.6604H32.6231L36.7065 18.7929L40.7899 22.6604ZM102.358 22.6604H96.5837L92.5002 18.7929L88.4168 22.6604H82.6419V28.1188L78.5585 31.9724L82.6419 35.84V41.312H88.4168L92.5002 45.1657L96.5837 41.312H102.358V35.84L106.455 31.9862L102.358 28.1188V22.6604ZM129.692 36.3749H125.044V40.7772L120.397 45.1657L115.75 40.7772V36.3749H111.103L106.456 31.9862L111.103 27.5839H115.75V23.1953L120.397 18.7929L125.044 23.1953V27.5839H129.692L134.352 31.9862L129.692 36.3749ZM130.255 49.0335H124.481L120.397 45.1659L116.313 49.0335H110.539V54.4918L106.456 58.3592L110.539 62.2268V67.6851H116.313L120.397 71.5526L124.481 67.6851H130.255V62.2268L134.352 58.3592L138.999 62.7479H143.647V67.1502L148.294 71.5526L152.941 67.1502V62.7479H157.588L162.235 58.3592L157.588 53.9569H152.941V49.5684L148.294 45.1659L143.647 49.5684V53.9569H138.999L134.352 58.3592L130.255 54.4918V49.0335ZM18.6813 9.46698L22.7651 5.59941H8.80957V18.7927L12.893 14.9253H18.6813V9.46698ZM106.455 5.59941L101.808 10.0019H97.1473V14.3904L92.5002 18.7927L87.8529 14.3904V10.0019H83.2059L78.5586 5.59941H106.455ZM50.6617 5.59941H78.5586L74.4614 9.46698V14.9253H68.6869L64.6035 18.7927L60.52 14.9253H54.7455V9.46698L50.6617 5.59941ZM134.352 5.59941L130.255 9.46698V14.9253H124.481L120.397 18.7927L116.313 14.9253H110.539V9.46698L106.456 5.59941H134.352ZM162.235 5.59941L157.588 10.0019H152.941V14.3904L148.294 18.7927L143.647 14.3904V10.0019H138.999L134.352 5.59941H162.235ZM162.235 5.59941H176.191V18.7927L172.107 14.9253H166.333V9.46698L162.235 5.59941ZM41.3538 265.201V260.812L36.7065 256.41L32.0595 260.812V265.201H27.4121L22.7651 269.603H50.6616L46.0146 265.201H41.3538ZM12.893 260.277H18.6813V265.736L22.7651 269.603H8.80957V256.41L12.893 260.277ZM13.4569 247.618H18.1177L22.7651 243.216L18.1177 238.828H13.4569V234.425L8.80957 230.037V256.409L13.4569 252.021V247.618ZM97.1473 260.812V265.201H101.808L106.455 269.603H78.5585L83.2059 265.201H87.8529V260.812L92.5002 256.41L97.1473 260.812ZM74.4614 265.736L78.5585 269.603H50.6617L54.7455 265.736V260.277H60.52L64.6035 256.41L68.6869 260.277H74.4614V265.736ZM40.7899 233.89H46.5645V239.363L50.6616 243.216L46.5645 247.084V252.556H40.7899L36.7065 256.409L32.6231 252.556H26.8485V247.084L22.7651 243.216L26.8485 239.363V233.89H32.6231L36.7065 230.037L40.7899 233.89ZM69.2505 247.618H73.8978L78.5586 243.216L82.6419 247.084V252.556H88.4168L92.5002 256.409L96.5837 252.556H102.358V247.084L106.455 243.216L102.358 239.363V233.89H96.5837L92.5002 230.037L88.4168 233.89H82.6419V239.363L78.5586 243.216L73.9116 238.828H69.2505V234.425L64.6035 230.037L59.9561 234.425V238.828H55.3091L50.6617 243.216L55.3091 247.618H59.9561V252.021L64.6035 256.409L69.2505 252.021V247.618ZM124.481 260.277H130.255V265.736L134.352 269.603H106.456L110.539 265.736V260.277H116.313L120.397 256.41L124.481 260.277ZM134.352 269.603L138.999 265.201H143.647V260.812L148.294 256.41L152.941 260.812V265.201H157.588L162.235 269.603H134.352ZM129.692 247.618H125.044V252.021L120.397 256.409L115.75 252.021V247.618H111.103L106.456 243.216L111.103 238.828H115.75V234.425L120.397 230.037L125.044 234.425V238.828H129.692L134.352 243.216L129.692 247.618ZM134.352 243.216L138.436 247.084V252.556H144.21L148.294 256.409L152.377 252.556H158.152V247.084L162.235 243.216L158.152 239.363V233.89H152.377L148.294 230.037L144.21 233.89H138.436V239.363L134.352 243.216ZM171.544 89.1347V93.5233L176.191 97.9255V71.5529L171.544 75.9414V80.3437H166.896L162.236 84.7324L166.896 89.1347H171.544ZM172.107 101.793L176.191 97.9257V124.298L172.107 120.431H166.333V114.972L162.236 111.105L166.333 107.251V101.793H172.107ZM176.191 230.036L172.107 226.169H166.333V220.71L162.236 216.843L166.333 212.976V207.517H172.107L176.191 203.65V230.036ZM171.544 185.849H166.896L162.236 190.251L166.896 194.64H171.544V199.042L176.191 203.431V177.058L171.544 181.446V185.849ZM166.333 154.538V160.01L162.236 163.864L166.333 167.731V173.19H172.107L176.191 177.057V150.685V150.684V124.299L171.544 128.701V133.09H166.896L162.236 137.492L166.896 141.894H171.544V146.283L176.19 150.685L172.107 154.538H166.333ZM171.544 36.3749V40.7772L176.191 45.1657V18.7929L171.544 23.1953V27.5839H166.896L162.236 31.9862L166.896 36.3749H171.544ZM144.21 41.312H138.436V35.84L134.352 31.9724L138.436 28.1188V22.6604H144.21L148.294 18.7929L152.377 22.6604H158.152V28.1188L162.235 31.9862L158.152 35.84V41.312H152.377L148.294 45.1657L144.21 41.312ZM166.333 49.0335V54.4918L162.236 58.3592L166.333 62.2268V67.6851H172.107L176.191 71.5526V45.1659L172.107 49.0335H166.333ZM166.333 265.736V260.277H172.107L176.191 256.41V269.603H162.236L166.333 265.736ZM171.544 238.828H166.896L162.236 243.216L166.896 247.618H171.544V252.021L176.191 256.409V230.037L171.544 234.425V238.828Z" fill="black"/>
</g>
<defs>
<linearGradient id="paint0_linear_1_779" x1="92.5" y1="8.78981" x2="92.5" y2="267.21" gradientUnits="userSpaceOnUse">
<stop stop-color="#3085E8"/>
<stop offset="1" stop-color="#1660B6"/>
</linearGradient>
<clipPath id="clip0_1_779">
<rect x="8.80957" y="8.78981" width="167.381" height="258.42" rx="14" fill="white"/>
</clipPath>
</defs>
</svg>
